<svg xmlns="http://www.w3.org/2000/svg" width="48" height="48" viewBox="0 0 48 48">
  <!-- Pushable teal/cyan block with bevel -->
  <!-- Dark outline -->
  <rect x="1" y="1" width="46" height="46" rx="2" fill="#222222"/>
  <!-- Block base -->
  <rect x="2" y="2" width="44" height="44" rx="2" fill="#44BBAA"/>
  <!-- Top bevel (highlight) -->
  <path d="M4 4 L44 4 L40 8 L8 8 Z" fill="#66DDCC" opacity="0.8"/>
  <!-- Left bevel (highlight) -->
  <path d="M4 4 L8 8 L8 40 L4 44 Z" fill="#55CCBB" opacity="0.6"/>
  <!-- Bottom bevel (shadow) -->
  <path d="M4 44 L8 40 L40 40 L44 44 Z" fill="#339988" opacity="0.8"/>
  <!-- Right bevel (shadow) -->
  <path d="M44 4 L44 44 L40 40 L40 8 Z" fill="#2D8878" opacity="0.8"/>
  <!-- Center face -->
  <rect x="8" y="8" width="32" height="32" rx="1" fill="#44BBAA"/>
  <!-- Subtle cross detail -->
  <line x1="24" y1="10" x2="24" y2="38" stroke="#3DAA99" stroke-width="1" opacity="0.5"/>
  <line x1="10" y1="24" x2="38" y2="24" stroke="#3DAA99" stroke-width="1" opacity="0.5"/>
  <!-- Top-left shine -->
  <rect x="10" y="10" width="6" height="6" rx="1" fill="#77EEDD" opacity="0.4"/>
</svg>