<svg width="48" height="48" viewBox="0 0 48 48" fill="none" xmlns="http://www.w3.org/2000/svg">
  <g opacity="0.9">
    <path d="M-4 14C4 10 12 10 20 14C28 18 36 18 44 14C52 10 60 10 68 14V22C60 18 52 18 44 22C36 26 28 26 20 22C12 18 4 18 -4 22V14Z" fill="#71866F" fill-opacity="0.12"/>
    <path d="M-4 30C4 26 12 26 20 30C28 34 36 34 44 30C52 26 60 26 68 30V38C60 34 52 34 44 38C36 42 28 42 20 38C12 34 4 34 -4 38V30Z" fill="#657A63" fill-opacity="0.14"/>
  </g>

  <g stroke-linecap="round">
    <path d="M0 48C2 42 3 36 3 29" stroke="#7D927A" stroke-opacity="0.78" stroke-width="1.4"/>
    <path d="M0 24C2 21 3 17 3 12" stroke="#98AA95" stroke-opacity="0.4" stroke-width="1"/>
    <path d="M6 48C8 43 9 37 9 31" stroke="#8A9E87" stroke-opacity="0.82" stroke-width="1.5"/>
    <path d="M12 46C14 40 15 34 15 27" stroke="#748A72" stroke-opacity="0.76" stroke-width="1.3"/>
    <path d="M18 48C20 42 21 35 21 28" stroke="#8FA28C" stroke-opacity="0.84" stroke-width="1.4"/>
    <path d="M24 45C26 39 27 33 27 25" stroke="#6D836B" stroke-opacity="0.74" stroke-width="1.3"/>
    <path d="M30 48C32 43 33 37 33 30" stroke="#889C85" stroke-opacity="0.82" stroke-width="1.5"/>
    <path d="M36 46C38 40 39 34 39 27" stroke="#748A72" stroke-opacity="0.76" stroke-width="1.3"/>
    <path d="M42 48C44 42 45 35 45 28" stroke="#92A68F" stroke-opacity="0.84" stroke-width="1.4"/>
    <path d="M48 48C50 42 51 36 51 29" stroke="#7D927A" stroke-opacity="0.78" stroke-width="1.4"/>
    <path d="M48 24C50 21 51 17 51 12" stroke="#98AA95" stroke-opacity="0.4" stroke-width="1"/>
  </g>

  <g stroke-linecap="round">
    <path d="M-2 8C2 6 6 6 10 8C14 10 18 10 22 8C26 6 30 6 34 8C38 10 42 10 46 8C50 6 54 6 58 8" stroke="#AAB8A3" stroke-opacity="0.18" stroke-width="1.1"/>
    <path d="M-2 20C2 18 6 18 10 20C14 22 18 22 22 20C26 18 30 18 34 20C38 22 42 22 46 20C50 18 54 18 58 20" stroke="#9EAD98" stroke-opacity="0.16" stroke-width="1"/>
    <path d="M-2 32C2 30 6 30 10 32C14 34 18 34 22 32C26 30 30 30 34 32C38 34 42 34 46 32C50 30 54 30 58 32" stroke="#A5B49F" stroke-opacity="0.17" stroke-width="1"/>
    <path d="M-2 44C2 42 6 42 10 44C14 46 18 46 22 44C26 42 30 42 34 44C38 46 42 46 46 44C50 42 54 42 58 44" stroke="#96A792" stroke-opacity="0.15" stroke-width="1"/>
  </g>

  <g fill="#C0CAB7" fill-opacity="0.14">
    <circle cx="6" cy="6" r="0.9"/>
    <circle cx="18" cy="18" r="0.7"/>
    <circle cx="30" cy="6" r="0.8"/>
    <circle cx="42" cy="18" r="0.7"/>
    <circle cx="6" cy="30" r="0.7"/>
    <circle cx="18" cy="42" r="0.9"/>
    <circle cx="30" cy="30" r="0.7"/>
    <circle cx="42" cy="42" r="0.8"/>
  </g>
</svg>
