<svg xmlns="http://www.w3.org/2000/svg" width="32" height="32" viewBox="0 0 32 32">
  <!-- Retro capsule power-up with a bold P -->
  <!-- Glow -->
  <ellipse cx="16" cy="17" rx="13" ry="11" fill="#FFB347" opacity="0.12"/>
  <ellipse cx="16" cy="17" rx="10" ry="8" fill="#FFD36A" opacity="0.1"/>

  <!-- Capsule shadow -->
  <ellipse cx="16" cy="27" rx="8" ry="2.5" fill="#00000022"/>

  <!-- Capsule body -->
  <rect x="6" y="7" width="20" height="18" rx="9" fill="#F7E3A2" stroke="#222222" stroke-width="1.5"/>

  <!-- Bottom half -->
  <path d="M6 16H26V16C26 20.9706 21.5228 25 16 25C10.4772 25 6 20.9706 6 16V16Z" fill="#D86E3A"/>

  <!-- Top half shine -->
  <path d="M7.5 15C8 10.5 11.3 8 16 8C20.7 8 24 10.5 24.5 15H7.5Z" fill="#FFF2C9" opacity="0.95"/>
  <ellipse cx="12" cy="12" rx="3.5" ry="2.2" fill="#FFFFFF" opacity="0.45"/>

  <!-- Center seam -->
  <rect x="6.5" y="15.25" width="19" height="1.5" rx="0.75" fill="#222222" opacity="0.25"/>

  <!-- P emblem plate -->
  <circle cx="16" cy="16" r="5.3" fill="#FFF8E6" stroke="#7A2F1B" stroke-width="1.2"/>
  <path d="M14 19V12.4H17.1C18.7 12.4 19.8 13.25 19.8 14.75C19.8 16.25 18.7 17.1 17.1 17.1H15.85V19H14Z" fill="#7A2F1B"/>
  <path d="M15.85 15.75H16.95C17.7 15.75 18.1 15.4 18.1 14.75C18.1 14.1 17.7 13.75 16.95 13.75H15.85V15.75Z" fill="#7A2F1B"/>

  <!-- Tiny sparkle -->
  <path d="M24.5 8.5L25.2 7L25.9 8.5L27.4 9.2L25.9 9.9L25.2 11.4L24.5 9.9L23 9.2L24.5 8.5Z" fill="#FFFFFF" opacity="0.8"/>
</svg>
